# xmcd
#
# Track frame offsets:
#	150
#	5520
#	17450
#	31114
#	41179
#	56741
#	70875
#	79991
#	101629
#	116165
#	130609
#	146050
#	160734
#	182680
#	200613
#
# Disc length: 2856 seconds
#
# Revision: 3
# Processed by: cddbd v1.5.2PL0 Copyright (c) Steve Scherf et al.
# Submitted via: EZCDAudioConverter 2.1.7.1
#
DISCID=cc0b260f
DTITLE=V/A - Festive Fifteen
DYEAR=2010
DGENRE=MOJO
TTITLE0=R.E.M. - Deck The Halls
TTITLE1=Chuck Berry - Run Rudolph Run
TTITLE2=Superchunk - Child's Christmas In Wales
TTITLE3=Sharon Jones and The Dap-Kings - Ain't No Chimneys In The Projects
TTITLE4=Hannah Peel and Tunng - Hey Santa!
TTITLE5=Sea Of Bees - Feliz Navidad
TTITLE6=Free Design - Close Your Mouth (It's Christmas)
TTITLE7=Flaming Lips - Little Drummer Boy
TTITLE8=Sufjan Stevens - That Was The Worst Christmas Ever!
TTITLE9=Richard Hawley - Silent Night
TTITLE10=Joe Tex - I'll Make Every Day Christmas
TTITLE11=Mary Chapin Carpenter - Christmas Time In The City
TTITLE12=Irma Thomas - Oh Holy Night
TTITLE13=Marc Almond - Heart On Snow
TTITLE14=Tony Christie - Happy Xmas Everybody
EXTD=
EXTT0=
EXTT1=
EXTT2=
EXTT3=
EXTT4=
EXTT5=
EXTT6=
EXTT7=
EXTT8=
EXTT9=
EXTT10=
EXTT11=
EXTT12=
EXTT13=
EXTT14=
PLAYORDER=
